<svg width="393" height="278" viewBox="0 0 393 278" fill="none" xmlns="http://www.w3.org/2000/svg">
<g clip-path="url(#clip0)">
<path d="M192.227 216.555C239.211 216.555 277.3 178.449 277.3 131.444C277.3 84.4387 239.211 46.3333 192.227 46.3333C145.242 46.3333 107.153 84.4387 107.153 131.444C107.153 178.449 145.242 216.555 192.227 216.555Z" fill="url(#paint0_linear)"/>
<path fill-rule="evenodd" clip-rule="evenodd" d="M264.693 86.0062C322.382 77.0988 363.783 77.8943 366.707 89.833C370.805 106.566 297.783 138.843 203.609 161.927C109.436 185.011 29.7706 190.161 25.6723 173.428C22.8834 162.039 55.8285 143.449 106.846 125.457C69.4552 139.572 46.0781 153.635 48.2608 162.547C51.7689 176.871 119.966 172.464 200.582 152.702C281.2 132.942 343.71 105.31 340.202 90.9865C337.903 81.6016 307.832 80.2586 264.693 86.0062Z" fill="#BB6BD9"/>
<path fill-rule="evenodd" clip-rule="evenodd" d="M275.684 85.2706C342.175 75.0037 389.894 75.9205 393.264 89.6813C397.987 108.967 313.823 146.17 205.279 172.777C96.7347 199.384 4.91302 205.318 0.189391 186.033C-3.02513 172.906 34.9471 151.479 93.75 130.742C50.6536 147.01 23.7089 163.22 26.2247 173.491C30.2683 190.001 108.872 184.921 201.79 162.145C294.709 139.368 366.758 107.52 362.714 91.0108C360.065 80.1939 325.405 78.6459 275.684 85.2706Z" fill="#A74DC7"/>
</g>
<defs>
<linearGradient id="paint0_linear" x1="230.195" y1="55.2799" x2="154.206" y2="207.582" gradientUnits="userSpaceOnUse">
<stop stop-color="white"/>
<stop offset="1" stop-color="#CEA7E6"/>
</linearGradient>
<clipPath id="clip0">
<rect width="393" height="278" fill="white"/>
</clipPath>
</defs>
</svg>
